<svg xmlns="http://www.w3.org/2000/svg" viewBox="0 0 391.67 137.62"><defs><style>.cls-1{fill:#0071bc;}</style></defs><g id="Layer_2" data-name="Layer 2"><g id="Layer_1-2" data-name="Layer 1"><path d="M34.68,32.12a34.68,34.68,0,0,0-1.25,69.34v0H34c.25,0,.5,0,.76,0s.69,0,1,0H53.33V88.38H50.41l-15.73,0a21.52,21.52,0,0,1-.34-43c12-.19,21.86,9.88,21.86,21.9v34.28H69.39V65.56h-.07A34.71,34.71,0,0,0,34.68,32.12Z"/><path d="M170.94,60.38V60.3h0A.09.09,0,0,1,170.94,60.38Z"/><path d="M104.47,36.08v-.52H91.93v-7A12.54,12.54,0,0,0,79.39,16h-.52V89a12.55,12.55,0,0,0,12.54,12.54h.52V48.62h0A12.53,12.53,0,0,0,104.47,36.08Z"/><path d="M209.67,45.18a21.59,21.59,0,0,1,14.64,5.7A16.9,16.9,0,0,0,242,54.06a34.7,34.7,0,1,0,0,25.55,16.9,16.9,0,0,0-17.66,3.18,21.65,21.65,0,1,1-14.64-37.61Z"/><path d="M304.42,42.12a34.64,34.64,0,0,0-43.28,0v-29A13.07,13.07,0,0,0,248.07,0V88.46a13,13,0,0,0,13.07,13.07V69.23a21.65,21.65,0,0,1,43.28-1.1V88.46a13.05,13.05,0,0,0,1.71,6.46,13.65,13.65,0,0,0,2.11,2.79,13,13,0,0,0,9.25,3.82V69.23A34.54,34.54,0,0,0,304.42,42.12Z"/><path d="M387.85,39.91a13,13,0,0,0-9.25-3.82v32.3a21.65,21.65,0,0,1-43.28,1.11V49.16a13.05,13.05,0,0,0-1.71-6.46,13.65,13.65,0,0,0-2.11-2.79,13,13,0,0,0-9.25-3.82v32.3A34.69,34.69,0,0,0,378.6,95.5v29.05a13.07,13.07,0,0,0,13.07,13.07V49.16A13,13,0,0,0,387.85,39.91Z"/><path d="M169.21,54.41c-.14-.36-.28-.71-.43-1.06a34.65,34.65,0,0,0-13.33-15.78,33.58,33.58,0,0,0-6.28-3.16,33.92,33.92,0,0,0-6.93-1.85,35.42,35.42,0,0,0-7.42-.36h-.16a34.7,34.7,0,1,0,34.46,47.29,17.2,17.2,0,0,0-17.81,3.43,21.65,21.65,0,0,1-35.13-9.56h41.64a13,13,0,0,0,12.63-9.69,13,13,0,0,0,.45-2.3,7.46,7.46,0,0,0-.27-2.25A35,35,0,0,0,169.21,54.41Zm-53,5.89a21.64,21.64,0,0,1,41.27,0Z"/><path class="cls-1" d="M264.18,124.07v12.28h-5V124.71c0-3.82-1.88-5.66-5.1-5.66-3.57,0-6,2.16-6,6.46v10.84h-5V106.56h5V117.4a9.56,9.56,0,0,1,7.15-2.73C260.37,114.67,264.18,117.6,264.18,124.07Z"/><path class="cls-1" d="M289.2,127.24H272.38c.6,3.13,3.21,5.14,6.94,5.14a7.69,7.69,0,0,0,5.83-2.33l2.69,3.09c-1.93,2.29-4.94,3.5-8.64,3.5-7.19,0-11.84-4.62-11.84-11a10.66,10.66,0,0,1,11.08-11c6.26,0,10.84,4.38,10.84,11.08C289.28,126.15,289.24,126.76,289.2,127.24Zm-16.86-3.33H284.5a5.84,5.84,0,0,0-6.06-5.23A5.93,5.93,0,0,0,272.34,123.91Z"/><path class="cls-1" d="M309.8,123.79v12.56h-4.73v-2.61c-1.21,1.85-3.54,2.9-6.75,2.9-4.9,0-8-2.69-8-6.43,0-3.57,2.41-6.38,8.91-6.38h5.54v-.33c0-2.93-1.76-4.65-5.34-4.65a10.61,10.61,0,0,0-6.5,2.12l-2-3.65a15.06,15.06,0,0,1,9.08-2.65C306.23,114.67,309.8,117.6,309.8,123.79Zm-5,5.86v-2.49H299.6c-3.41,0-4.33,1.28-4.33,2.85,0,1.81,1.52,3,4.09,3A5.46,5.46,0,0,0,304.78,129.65Z"/><path class="cls-1" d="M314.58,106.56h5v29.79h-5Z"/><path class="cls-1" d="M338.48,135.19a7.94,7.94,0,0,1-4.82,1.45c-4.7,0-7.39-2.49-7.39-7.23V119.09h-3.54v-4h3.54v-4.9h5v4.9H337v4h-5.74v10.2c0,2.09,1,3.21,3,3.21a4.52,4.52,0,0,0,2.81-.88Z"/><path class="cls-1" d="M362.09,124.07v12.28h-5V124.71c0-3.82-1.89-5.66-5.1-5.66-3.58,0-6,2.16-6,6.46v10.84h-5V106.56h5V117.4a9.52,9.52,0,0,1,7.14-2.73C358.27,114.67,362.09,117.6,362.09,124.07Z"/></g></g></svg>