<?xml version="1.0" encoding="utf-8"?>
<!-- Generator: Adobe Illustrator 24.1.1, SVG Export Plug-In . SVG Version: 6.00 Build 0)  -->
<svg version="1.1" id="Layer_1" xmlns="http://www.w3.org/2000/svg" xmlns:xlink="http://www.w3.org/1999/xlink" x="0px" y="0px"
	 viewBox="0 0 1796.7 406.9" style="enable-background:new 0 0 1796.7 406.9;" xml:space="preserve">
<style type="text/css">
	.st0{fill:url(#SVGID_1_);}
	.st1{fill:url(#SVGID_2_);}
	.st2{fill:url(#SVGID_3_);}
	.st3{fill:url(#SVGID_4_);}
	.st4{fill:url(#SVGID_5_);}
	.st5{fill:url(#SVGID_6_);}
	.st6{fill:url(#SVGID_7_);}
	.st7{fill:url(#SVGID_8_);}
	.st8{fill:url(#SVGID_9_);}
	.st9{fill:url(#SVGID_10_);}
	.st10{fill:url(#SVGID_11_);}
	.st11{fill:url(#SVGID_12_);}
	.st12{fill:url(#SVGID_13_);}
</style>
<g>
	
		<linearGradient id="SVGID_1_" gradientUnits="userSpaceOnUse" x1="9.692" y1="810.8828" x2="1654.1349" y2="797.2642" gradientTransform="matrix(1 0 0 -1 0 1000)">
		<stop  offset="0" style="stop-color:#0491A5"/>
		<stop  offset="0.6201" style="stop-color:#3AB5BB"/>
		<stop  offset="0.6861" style="stop-color:#3FB9BD"/>
		<stop  offset="0.9967" style="stop-color:#8DCCBE"/>
	</linearGradient>
	<path class="st0" d="M102,225.5c-2.1,1.7-4.7,3.1-7.9,4.1c-3.2,1-7,1.5-11.2,1.5c-5.7,0-10.4-0.7-14.1-2.1
		c-3.7-1.4-6.1-3.9-7.2-7.3c-4.4-13.9-8-25.1-10.9-33.6s-5-16.1-6.6-22.5H43c-0.5,9.3-0.8,17.8-1.1,25.4c-0.2,7.6-0.4,15.1-0.5,22.3
		c-0.1,7.3-0.2,14.6-0.5,22c-0.2,7.4-0.6,15.6-1.1,24.6c-2.1,0.8-4.7,1.5-8,2c-3.3,0.5-6.6,0.8-9.9,0.8c-6.9,0-12.3-1.1-16.2-3.3
		s-5.8-6.2-5.8-12l6.8-120.4c1.3-2,4-4.3,8.3-6.6s10.2-3.5,18-3.5c8.3,0,14.9,1.3,19.6,3.9s8.2,6.8,10.4,12.6
		c1.4,3.8,2.9,8.1,4.6,13c1.6,4.9,3.3,9.9,5,15.1c1.6,5.2,3.3,10.4,4.8,15.5c1.6,5.1,3,9.7,4.3,13.8h1.2c3.8-13.2,7.6-26,11.3-38.4
		c3.8-12.4,7.2-22.7,10.4-31.1c2.4-1.3,5.4-2.3,9.1-3.2c3.7-0.9,7.8-1.3,12.4-1.3c7.7,0,14,1.1,18.9,3.4c4.9,2.3,7.7,5.5,8.5,9.8
		c0.6,3.1,1.3,8,2,14.5c0.7,6.5,1.5,13.9,2.2,22.1c0.8,8.2,1.6,16.9,2.4,26c0.8,9.1,1.5,17.9,2.2,26.3s1.3,16.1,1.8,23.1
		c0.5,7,0.8,12.4,1,16.2c-2.7,1.6-5.5,2.7-8.4,3.4c-2.9,0.7-6.6,1.1-11.2,1.1c-6,0-11-1-15.1-3.1c-4.1-2-6.3-6.1-6.6-12
		c-0.9-17.2-1.5-32.6-1.8-46.3c-0.2-13.7-0.6-25.2-1.1-34.5h-1.2c-1.6,6.1-3.9,13.9-6.9,23.1C109.9,199.2,106.3,211.1,102,225.5z"/>
	
		<linearGradient id="SVGID_2_" gradientUnits="userSpaceOnUse" x1="9.4271" y1="778.8916" x2="1653.8699" y2="765.2731" gradientTransform="matrix(1 0 0 -1 0 1000)">
		<stop  offset="0" style="stop-color:#0491A5"/>
		<stop  offset="0.6201" style="stop-color:#3AB5BB"/>
		<stop  offset="0.6861" style="stop-color:#3FB9BD"/>
		<stop  offset="0.9967" style="stop-color:#8DCCBE"/>
	</linearGradient>
	<path class="st1" d="M197.9,231.4c-1.7-3.9-3.6-8.3-5.5-13.2c-2-4.9-4-10.5-6.1-16.8c-2.1-6.3-4.3-13.5-6.6-21.6
		c-2.3-8.1-4.7-17.4-7.2-28c2.2-2.2,5.2-4.1,8.9-5.8c3.7-1.6,7.8-2.5,12.2-2.5c5.5,0,10.1,1.1,13.7,3.4c3.6,2.3,6.3,6.6,8,12.9
		l18.7,64.9h1c1.9-5.3,3.7-11.2,5.5-17.5c1.8-6.3,3.6-12.8,5.3-19.5c1.7-6.7,3.3-13.4,4.8-20.1s2.8-13.3,3.9-19.7
		c5.7-3,11.9-4.5,18.7-4.5c5.5,0,10.1,1.2,13.7,3.5c3.6,2.4,5.4,6.5,5.4,12.3c0,4.3-0.5,9.2-1.6,14.8s-2.6,11.5-4.4,17.8
		c-1.8,6.3-3.9,12.8-6.4,19.5c-2.4,6.7-5,13.3-7.7,19.7c-2.7,6.5-5.4,12.6-8.3,18.3c-2.8,5.8-5.6,10.9-8.3,15.5
		c-4.4,7.7-8.5,14-12.3,18.9s-7.4,8.7-10.9,11.5s-6.9,4.6-10.4,5.7c-3.5,1-7.1,1.5-10.9,1.5c-6.6,0-12-2-16.1-5.9
		c-4.1-3.9-6.5-9-7.3-15.3c5-3.9,10.1-8.3,15.1-13.1c5-4.8,9.6-9.7,13.7-14.8c-2.7-0.8-5.5-2.6-8.6-5.5
		C204.9,244.9,201.5,239.5,197.9,231.4z"/>
	
		<linearGradient id="SVGID_3_" gradientUnits="userSpaceOnUse" x1="9.7114" y1="813.216" x2="1654.1542" y2="799.5974" gradientTransform="matrix(1 0 0 -1 0 1000)">
		<stop  offset="0" style="stop-color:#0491A5"/>
		<stop  offset="0.6201" style="stop-color:#3AB5BB"/>
		<stop  offset="0.6861" style="stop-color:#3FB9BD"/>
		<stop  offset="0.9967" style="stop-color:#8DCCBE"/>
	</linearGradient>
	<path class="st2" d="M409,117.6c1.1,1.7,2.1,4.1,3,7s1.3,5.9,1.3,9.1c0,6.1-1.3,10.5-3.9,13.1c-2.6,2.6-6.1,3.9-10.5,3.9h-49.6
		v26.7H401c1.3,1.7,2.3,4,3.2,6.9c0.9,2.8,1.3,5.8,1.3,9c0,6-1.3,10.3-3.9,12.9s-6.1,3.9-10.5,3.9h-41.3v49.8
		c-1.7,0.5-4.5,1-8.1,1.4c-3.7,0.5-7.4,0.7-11,0.7c-3.6,0-6.8-0.3-9.6-0.8s-5.1-1.5-7-3s-3.3-3.4-4.3-5.9c-1-2.5-1.4-5.8-1.4-9.9
		V139.6c0-6.8,2-12.1,5.9-16.1c3.9-3.9,9.3-5.9,16.1-5.9L409,117.6L409,117.6z"/>
	
		<linearGradient id="SVGID_4_" gradientUnits="userSpaceOnUse" x1="9.7675" y1="819.9991" x2="1654.2103" y2="806.3806" gradientTransform="matrix(1 0 0 -1 0 1000)">
		<stop  offset="0" style="stop-color:#0491A5"/>
		<stop  offset="0.6201" style="stop-color:#3AB5BB"/>
		<stop  offset="0.6861" style="stop-color:#3FB9BD"/>
		<stop  offset="0.9967" style="stop-color:#8DCCBE"/>
	</linearGradient>
	<path class="st3" d="M466.9,260.5c-1.7,0.3-4.3,0.8-7.7,1.3s-6.8,0.8-10.3,0.8s-6.6-0.2-9.3-0.7c-2.8-0.5-5.1-1.4-7-2.8
		c-1.9-1.4-3.3-3.3-4.4-5.8c-1-2.4-1.5-5.6-1.5-9.6v-137c1.7-0.3,4.3-0.8,7.7-1.3c3.4-0.5,6.8-0.8,10.3-0.8s6.6,0.2,9.3,0.7
		c2.8,0.5,5.1,1.4,7,2.8c1.9,1.4,3.3,3.4,4.4,5.8c1,2.4,1.5,5.6,1.5,9.6L466.9,260.5L466.9,260.5z"/>
	
		<linearGradient id="SVGID_5_" gradientUnits="userSpaceOnUse" x1="9.8206" y1="826.4172" x2="1654.2634" y2="812.7988" gradientTransform="matrix(1 0 0 -1 0 1000)">
		<stop  offset="0" style="stop-color:#0491A5"/>
		<stop  offset="0.6201" style="stop-color:#3AB5BB"/>
		<stop  offset="0.6861" style="stop-color:#3FB9BD"/>
		<stop  offset="0.9967" style="stop-color:#8DCCBE"/>
	</linearGradient>
	<path class="st4" d="M486.5,114.1c0-6,2-11,6-15.1s9.3-6.1,15.9-6.1s11.9,2,15.9,6.1c4,4.1,6,9.1,6,15.1c0,6-2,11-6,15.1
		c-4,4.1-9.3,6.1-15.9,6.1s-11.9-2-15.9-6.1C488.5,125.1,486.5,120.1,486.5,114.1z M528.5,260.5c-1.7,0.3-4.3,0.8-7.7,1.3
		s-6.8,0.8-10.3,0.8s-6.6-0.2-9.3-0.7c-2.8-0.5-5.1-1.4-7-2.8c-1.9-1.4-3.3-3.3-4.4-5.8c-1-2.4-1.5-5.6-1.5-9.6v-96.1
		c1.7-0.3,4.3-0.8,7.7-1.3c3.4-0.5,6.8-0.8,10.3-0.8s6.6,0.2,9.3,0.7c2.8,0.5,5.1,1.4,7,2.8c1.9,1.4,3.3,3.4,4.4,5.8
		c1,2.4,1.5,5.6,1.5,9.6L528.5,260.5L528.5,260.5z"/>
	
		<linearGradient id="SVGID_6_" gradientUnits="userSpaceOnUse" x1="9.4525" y1="781.964" x2="1653.8954" y2="768.3454" gradientTransform="matrix(1 0 0 -1 0 1000)">
		<stop  offset="0" style="stop-color:#0491A5"/>
		<stop  offset="0.6201" style="stop-color:#3AB5BB"/>
		<stop  offset="0.6861" style="stop-color:#3FB9BD"/>
		<stop  offset="0.9967" style="stop-color:#8DCCBE"/>
	</linearGradient>
	<path class="st5" d="M605.3,142.4c9,0,17.1,1.1,24.4,3.4c7.3,2.3,13.5,5.2,18.5,8.9c3.2,2.2,5.6,4.6,7.4,7.3
		c1.8,2.7,2.7,6.1,2.7,10.4v82.7c0,8.3-1.6,15.5-4.7,21.6c-3.2,6.1-7.4,11.1-12.9,15.1s-11.8,7-19.1,8.8c-7.3,1.9-15.2,2.8-23.5,2.8
		c-14.3,0-25.6-1.9-33.8-5.8c-8.2-3.9-12.3-10.1-12.3-18.8c0-3.6,0.8-6.8,2.2-9.6c1.5-2.8,3.2-4.8,5.1-6.3c4.6,2.5,9.7,4.6,15.5,6.4
		c5.7,1.7,11.7,2.6,17.8,2.6c8.5,0,15.3-1.4,20.3-4.3c5-2.8,7.6-7.4,7.6-13.7v-3.8c-6.5,2.8-14.3,4.3-23.6,4.3
		c-7.1,0-13.8-1.1-20.2-3.2c-6.4-2.1-12-5.4-16.8-9.9c-4.8-4.5-8.7-10.3-11.6-17.4c-2.9-7.1-4.4-15.5-4.4-25.3c0-9.6,1.5-18,4.6-25
		s7.3-13,12.8-17.6c5.4-4.6,11.9-8.1,19.4-10.4C588.3,143.6,596.5,142.4,605.3,142.4z M619.9,176.7c-1.1-0.6-2.7-1.3-4.8-1.9
		c-2.1-0.6-4.8-1-7.9-1c-7.7,0-13.5,2.2-17.4,6.5s-5.8,10.5-5.8,18.5c0,9.1,1.9,15.7,5.8,19.7c3.9,4,8.8,6,14.8,6
		c6.5,0,11.6-1.5,15.3-4.5V176.7z"/>
	
		<linearGradient id="SVGID_7_" gradientUnits="userSpaceOnUse" x1="9.7848" y1="822.0876" x2="1654.2275" y2="808.4691" gradientTransform="matrix(1 0 0 -1 0 1000)">
		<stop  offset="0" style="stop-color:#0491A5"/>
		<stop  offset="0.6201" style="stop-color:#3AB5BB"/>
		<stop  offset="0.6861" style="stop-color:#3FB9BD"/>
		<stop  offset="0.9967" style="stop-color:#8DCCBE"/>
	</linearGradient>
	<path class="st6" d="M791.9,260.5c-1.6,0.5-4.1,1-7.4,1.4c-3.4,0.5-6.9,0.7-10.5,0.7c-3.5,0-6.6-0.2-9.3-0.7
		c-2.8-0.5-5.1-1.4-7-2.8c-1.9-1.4-3.3-3.3-4.4-5.8c-1-2.4-1.5-5.6-1.5-9.6v-52.4c0-6.5-1.6-11-4.8-13.6c-3.2-2.6-7.2-3.9-11.9-3.9
		c-3.2,0-6.1,0.4-9,1.2c-2.8,0.8-5.1,1.7-6.8,2.8v82.7c-1.6,0.5-4.1,1-7.4,1.4c-3.4,0.5-6.9,0.7-10.5,0.7c-3.5,0-6.6-0.2-9.3-0.7
		c-2.8-0.5-5.1-1.4-7-2.8s-3.3-3.3-4.4-5.8c-1-2.4-1.5-5.6-1.5-9.6v-137c1.7-0.3,4.3-0.8,7.7-1.3s6.8-0.8,10.3-0.8s6.6,0.2,9.3,0.7
		c2.8,0.5,5.1,1.4,7,2.8c1.9,1.4,3.3,3.4,4.4,5.8c1,2.4,1.5,5.6,1.5,9.6v23.2c2-0.8,5.2-1.7,9.3-2.7c4.2-1,8.8-1.5,13.8-1.5
		c15.6,0,27.8,3.9,36.5,11.7s13.1,19.4,13.1,34.8L791.9,260.5L791.9,260.5z"/>
	
		<linearGradient id="SVGID_8_" gradientUnits="userSpaceOnUse" x1="9.7214" y1="814.429" x2="1654.1642" y2="800.8104" gradientTransform="matrix(1 0 0 -1 0 1000)">
		<stop  offset="0" style="stop-color:#0491A5"/>
		<stop  offset="0.6201" style="stop-color:#3AB5BB"/>
		<stop  offset="0.6861" style="stop-color:#3FB9BD"/>
		<stop  offset="0.9967" style="stop-color:#8DCCBE"/>
	</linearGradient>
	<path class="st7" d="M852.1,221.3c0,4.1,1.3,7,3.9,8.7c2.6,1.7,6.3,2.6,11,2.6c2.4,0,4.8-0.2,7.3-0.6s4.7-0.9,6.6-1.5
		c1.4,1.7,2.6,3.7,3.7,5.8c1,2.1,1.5,4.7,1.5,7.7c0,6-2.2,10.9-6.7,14.6c-4.5,3.8-12.4,5.7-23.7,5.7c-13.9,0-24.5-3.2-32-9.4
		c-7.5-6.3-11.2-16.5-11.2-30.7V123c1.7-0.5,4.2-1,7.4-1.5c3.2-0.5,6.7-0.8,10.3-0.8c6.9,0,12.3,1.2,16.2,3.7s5.8,7.6,5.8,15.5v15.1
		H883c1,1.7,1.8,3.9,2.7,6.5c0.9,2.6,1.3,5.5,1.3,8.6c0,5.5-1.2,9.5-3.7,11.9s-5.7,3.7-9.8,3.7h-21.5L852.1,221.3L852.1,221.3z"/>
	
		<linearGradient id="SVGID_9_" gradientUnits="userSpaceOnUse" x1="9.7672" y1="819.9582" x2="1654.2101" y2="806.3396" gradientTransform="matrix(1 0 0 -1 0 1000)">
		<stop  offset="0" style="stop-color:#0491A5"/>
		<stop  offset="0.6201" style="stop-color:#3AB5BB"/>
		<stop  offset="0.6861" style="stop-color:#3FB9BD"/>
		<stop  offset="0.9967" style="stop-color:#8DCCBE"/>
	</linearGradient>
	<path class="st8" d="M946.1,259.8c-1.7,0.5-4.4,1-8.2,1.4c-3.7,0.5-7.4,0.7-11,0.7c-3.6,0-6.8-0.3-9.6-0.8c-2.8-0.5-5.1-1.5-7-3
		s-3.3-3.4-4.3-5.9c-1-2.5-1.4-5.8-1.4-9.9V131.1c0-3.3,0.9-5.9,2.7-7.7c1.8-1.8,4.3-3.3,7.4-4.4c5.4-1.9,11.5-3.3,18.3-4.1
		c6.8-0.9,13.7-1.3,20.7-1.3c21.7,0,38.3,4.6,49.8,13.9c11.5,9.3,17.2,21.9,17.2,37.8c0,7.7-1.2,14.7-3.7,20.9
		c-2.4,6.2-6.1,11.6-10.9,16.1c-4.8,4.5-10.9,8-18.2,10.4c-7.3,2.4-15.8,3.7-25.4,3.7H946L946.1,259.8L946.1,259.8z M958.3,184
		c6.6,0,11.7-1.5,15.2-4.6c3.5-3.1,5.3-7.8,5.3-14c0-6-1.8-10.6-5.6-13.8c-3.7-3.2-9.1-4.8-16.2-4.8c-2.5,0-4.6,0-6.3,0.1
		s-3.3,0.3-5.1,0.6V184L958.3,184L958.3,184z"/>
	
		<linearGradient id="SVGID_10_" gradientUnits="userSpaceOnUse" x1="9.6467" y1="805.4036" x2="1654.0896" y2="791.785" gradientTransform="matrix(1 0 0 -1 0 1000)">
		<stop  offset="0" style="stop-color:#0491A5"/>
		<stop  offset="0.6201" style="stop-color:#3AB5BB"/>
		<stop  offset="0.6861" style="stop-color:#3FB9BD"/>
		<stop  offset="0.9967" style="stop-color:#8DCCBE"/>
	</linearGradient>
	<path class="st9" d="M1079,142.4c8.5,0,16.3,0.9,23.3,2.6c7,1.7,13,4.4,17.9,7.9s8.8,8,11.4,13.5c2.7,5.4,4,11.9,4,19.3v52.9
		c0,4.1-1.1,7.4-3.4,10c-2.3,2.6-5,4.8-8.2,6.7c-10.2,6.1-24.6,9.2-43.2,9.2c-8.3,0-15.9-0.8-22.6-2.4s-12.4-3.9-17.2-7.1
		c-4.8-3.2-8.5-7.2-11.1-12s-3.9-10.5-3.9-17c0-10.9,3.2-19.2,9.7-25c6.4-5.8,16.4-9.5,30-10.9l30.9-3.3v-1.6c0-4.6-2-7.8-6-9.8
		s-9.8-3-17.4-3c-6,0-11.8,0.6-17.5,1.9c-5.7,1.3-10.8,2.8-15.3,4.7c-2.1-1.4-3.8-3.6-5.2-6.5c-1.4-2.9-2.1-5.9-2.1-9.1
		c0-4.1,1-7.4,2.9-9.8s5-4.5,9.1-6.3c4.6-1.7,10-3,16.2-3.8C1067.6,142.8,1073.5,142.4,1079,142.4z M1080.9,235.2
		c2.7,0,5.6-0.3,8.9-0.8c3.2-0.5,5.6-1.3,7.2-2.2v-18.9l-17,1.4c-4.4,0.3-8,1.3-10.9,2.8c-2.8,1.6-4.3,3.9-4.3,7.1
		c0,3.2,1.2,5.7,3.7,7.7C1070.9,234.2,1075.1,235.2,1080.9,235.2z"/>
	
		<linearGradient id="SVGID_11_" gradientUnits="userSpaceOnUse" x1="9.6545" y1="806.3503" x2="1654.0974" y2="792.7316" gradientTransform="matrix(1 0 0 -1 0 1000)">
		<stop  offset="0" style="stop-color:#0491A5"/>
		<stop  offset="0.6201" style="stop-color:#3AB5BB"/>
		<stop  offset="0.6861" style="stop-color:#3FB9BD"/>
		<stop  offset="0.9967" style="stop-color:#8DCCBE"/>
	</linearGradient>
	<path class="st10" d="M1242.9,226.5c0,12-4.5,21.3-13.5,28.1c-9,6.8-22.2,10.2-39.7,10.2c-6.6,0-12.8-0.5-18.4-1.4
		s-10.5-2.4-14.5-4.4c-4-2-7.2-4.4-9.4-7.4c-2.3-3-3.4-6.5-3.4-10.6c0-3.8,0.8-7,2.4-9.6c1.6-2.6,3.5-4.8,5.7-6.5
		c4.6,2.5,9.8,4.8,15.7,6.7c5.9,2,12.7,3,20.4,3c4.9,0,8.6-0.7,11.2-2.1c2.6-1.4,3.9-3.3,3.9-5.7c0-2.2-0.9-3.9-2.8-5.2
		c-1.9-1.3-5-2.3-9.4-3.1l-7.1-1.4c-13.7-2.7-23.9-6.9-30.6-12.6s-10-14-10-24.7c0-5.8,1.3-11.1,3.8-15.8c2.5-4.7,6.1-8.7,10.6-11.8
		c4.6-3.1,10-5.6,16.4-7.3s13.4-2.6,21.1-2.6c5.8,0,11.3,0.4,16.4,1.3c5.1,0.9,9.6,2.2,13.3,3.9c3.8,1.7,6.8,4,9,6.7
		c2.2,2.8,3.3,6,3.3,9.8c0,3.6-0.7,6.7-2,9.3c-1.3,2.6-3,4.8-5.1,6.5c-1.3-0.8-3.2-1.6-5.7-2.5c-2.5-0.9-5.3-1.6-8.3-2.4
		s-6-1.3-9.1-1.8s-5.9-0.7-8.4-0.7c-5.2,0-9.2,0.6-12,1.8c-2.8,1.2-4.3,3-4.3,5.5c0,1.7,0.8,3.1,2.4,4.3c1.6,1.1,4.6,2.1,9,3.1
		l7.3,1.6c15.1,3.5,25.9,8.2,32.2,14.3C1239.7,209.1,1242.9,216.9,1242.9,226.5z"/>
	
		<linearGradient id="SVGID_12_" gradientUnits="userSpaceOnUse" x1="9.6621" y1="807.2732" x2="1654.1049" y2="793.6547" gradientTransform="matrix(1 0 0 -1 0 1000)">
		<stop  offset="0" style="stop-color:#0491A5"/>
		<stop  offset="0.6201" style="stop-color:#3AB5BB"/>
		<stop  offset="0.6861" style="stop-color:#3FB9BD"/>
		<stop  offset="0.9967" style="stop-color:#8DCCBE"/>
	</linearGradient>
	<path class="st11" d="M1354.4,226.5c0,12-4.5,21.3-13.5,28.1c-9,6.8-22.2,10.2-39.7,10.2c-6.6,0-12.8-0.5-18.4-1.4
		s-10.5-2.4-14.5-4.4c-4-2-7.2-4.4-9.4-7.4c-2.3-3-3.4-6.5-3.4-10.6c0-3.8,0.8-7,2.4-9.6c1.6-2.6,3.5-4.8,5.7-6.5
		c4.6,2.5,9.8,4.8,15.7,6.7c5.9,2,12.7,3,20.4,3c4.9,0,8.6-0.7,11.2-2.1c2.6-1.4,3.9-3.3,3.9-5.7c0-2.2-0.9-3.9-2.8-5.2
		c-1.9-1.3-5-2.3-9.4-3.1l-7.1-1.4c-13.7-2.7-23.9-6.9-30.6-12.6s-10-14-10-24.7c0-5.8,1.3-11.1,3.8-15.8c2.5-4.7,6.1-8.7,10.6-11.8
		c4.6-3.1,10-5.6,16.4-7.3s13.4-2.6,21.1-2.6c5.8,0,11.3,0.4,16.4,1.3c5.1,0.9,9.6,2.2,13.3,3.9c3.8,1.7,6.8,4,9,6.7
		c2.2,2.8,3.3,6,3.3,9.8c0,3.6-0.7,6.7-2,9.3c-1.3,2.6-3,4.8-5.1,6.5c-1.3-0.8-3.2-1.6-5.7-2.5c-2.5-0.9-5.3-1.6-8.3-2.4
		s-6-1.3-9.1-1.8s-5.9-0.7-8.4-0.7c-5.2,0-9.2,0.6-12,1.8c-2.8,1.2-4.3,3-4.3,5.5c0,1.7,0.8,3.1,2.4,4.3c1.6,1.1,4.6,2.1,9,3.1
		l7.3,1.6c15.1,3.5,25.9,8.2,32.2,14.3C1351.2,209.1,1354.4,216.9,1354.4,226.5z"/>
</g>
<linearGradient id="SVGID_13_" gradientUnits="userSpaceOnUse" x1="9.6758" y1="808.927" x2="1654.1187" y2="795.3084" gradientTransform="matrix(1 0 0 -1 0 1000)">
	<stop  offset="0" style="stop-color:#0491A5"/>
	<stop  offset="0.6201" style="stop-color:#3AB5BB"/>
	<stop  offset="0.6861" style="stop-color:#3FB9BD"/>
	<stop  offset="0.9967" style="stop-color:#8DCCBE"/>
</linearGradient>
<path class="st12" d="M1783,158.2c-7.6-11.6-17.8-20.4-29.5-27.3c-33.8-20-67.9-39.5-101.9-59.3c-32.2-18.7-64.3-37.4-96.5-56
	c-6-3.5-12.3-6.5-18.6-9.2c-43.9-18.8-89.5,5.6-106.3,43.3c-6.1,13.6-7.4,28.1-7.4,42.7c-0.1,16.6,0,29.3,0.1,44.2
	c-0.2,2.8,0.1,9.4,0.1,9.4c0,21,16.5,37.5,37.5,37.5c0,0,21.8-0.1,23.3-0.3c16.4,0.2,40.9,0.3,48,0.5c2.6,0,5.2,0,7.8-0.1
	c4-0.3,5.2-1.9,4.5-5.8c-0.2-0.9-0.4-1.8-0.6-2.8c-8.1-33.2-16.3-66.4-24.4-99.6c-1.4-5.9-1.2-6.6,3.7-8.8c2.6,0.1,5.2,0.2,7.8,0.3
	c5.3,1.8,8.7,5.7,11.7,10.2c21.4,31.8,43,63.5,64.5,95.3c8.2,12,6.4,12.3,23.7,13.3c20.6,1.2,41.3,2.1,61.8,3.8
	c11.2,0.9,20.9,5.1,24.9,17c-0.1,1.9-0.1,3.8-0.2,5.7c-4.8,11.5-14.6,15.1-25.7,15.3c-19.7,0.4-39.4-0.2-59.1-0.3
	c-3.9,0-7.8,0.1-11.7,0c-5-0.1-8.7,2-11.8,5.9c-25.5,32.8-51.1,65.5-76.6,98.2c-4.5,5.7-10,8.4-17.2,7.3c-5-0.7-6.4-2.6-4.9-7.4
	c10.5-33.1,21-66.3,31.5-99.4c0.3-0.8,0.5-1.6,0.7-2.4c1.1-3.8,0-5.6-3.9-6.3c-0.6-0.1-1.2-0.1-1.8-0.2c-11.4-0.6-55.2-2-66.7-1.7
	c-1.4,0-9.4,0.4-9.4,0.4c-18.5,0-34.3,12.1-37.7,29.7l-0.2,1.6c0,1.2,0,2.4,0,3.7c-0.1,2.5-0.1,7.3,0,8.2c0,3.3,0,6.6,0,9.9
	c0,18.8-0.6,37.6,0.8,56.3c3.2,44.2,41.4,77.5,85.3,75.6c13.8-0.6,26.3-5.1,38.2-11.2l0.1,0.2l145.1-83.4c0.1,0,0.1,0,0.2-0.1
	c15.8-9.1,23.4-13.5,37.9-21.8l31.7-18.2l-0.4-0.8c0.9-0.6,1.7-1.2,2.6-1.8C1798.7,243.8,1807,194.6,1783,158.2z"/>
</svg>
