<?xml version="1.0" encoding="utf-8"?>
<!-- Generator: Adobe Illustrator 25.0.1, SVG Export Plug-In . SVG Version: 6.00 Build 0)  -->
<svg version="1.1" id="Layer_1" xmlns="http://www.w3.org/2000/svg" xmlns:xlink="http://www.w3.org/1999/xlink" x="0px" y="0px"
	 viewBox="0 0 2000 1000" style="enable-background:new 0 0 2000 1000;" xml:space="preserve">
<style type="text/css">
	.st0{fill:#FFFFFF;}
</style>
<g>
	<path class="st0" d="M207.32,524.74c-2.05,1.74-4.69,3.11-7.91,4.13c-3.23,1.02-6.97,1.53-11.22,1.53
		c-5.67,0-10.35-0.71-14.05-2.12c-3.7-1.42-6.1-3.86-7.2-7.32c-4.41-13.85-8.03-25.07-10.86-33.65c-2.83-8.58-5.04-16.1-6.61-22.55
		h-1.18c-0.47,9.29-0.83,17.75-1.07,25.39c-0.23,7.64-0.39,15.08-0.47,22.31c-0.08,7.25-0.24,14.57-0.47,21.96
		c-0.24,7.4-0.59,15.59-1.07,24.56c-2.05,0.79-4.72,1.45-8.03,2.01c-3.31,0.55-6.61,0.83-9.92,0.83c-6.93,0-12.32-1.1-16.18-3.3
		c-3.86-2.2-5.78-6.22-5.78-12.05l6.85-120.44c1.26-2.04,4.01-4.25,8.26-6.61c4.25-2.36,10.23-3.54,17.95-3.54
		c8.34,0,14.88,1.3,19.6,3.9c4.72,2.6,8.18,6.81,10.39,12.63c1.42,3.78,2.95,8.11,4.61,12.99c1.65,4.88,3.31,9.92,4.96,15.12
		c1.65,5.19,3.27,10.35,4.84,15.47c1.57,5.12,2.99,9.72,4.25,13.82h1.18c3.78-13.23,7.56-26.02,11.34-38.38
		c3.78-12.36,7.24-22.71,10.39-31.06c2.36-1.26,5.39-2.32,9.09-3.19c3.7-0.86,7.83-1.3,12.4-1.3c7.71,0,14.01,1.14,18.89,3.42
		c4.88,2.29,7.71,5.55,8.5,9.8c0.63,3.15,1.3,7.99,2.01,14.52c0.71,6.53,1.45,13.9,2.24,22.08c0.78,8.19,1.57,16.85,2.36,25.98
		c0.78,9.13,1.53,17.91,2.24,26.33c0.71,8.42,1.3,16.14,1.77,23.14c0.47,7.01,0.78,12.4,0.95,16.18c-2.68,1.57-5.47,2.72-8.38,3.42
		c-2.92,0.71-6.65,1.06-11.22,1.06c-5.98,0-11.02-1.02-15.11-3.07c-4.1-2.04-6.3-6.06-6.61-12.04c-0.95-17.16-1.54-32.59-1.77-46.29
		c-0.23-13.7-0.59-25.19-1.06-34.48h-1.18c-1.58,6.14-3.86,13.86-6.85,23.14C215.19,498.37,211.57,510.26,207.32,524.74z"/>
	<path class="st0" d="M303.2,530.64c-1.74-3.93-3.58-8.34-5.55-13.23c-1.97-4.88-4.01-10.47-6.14-16.77
		c-2.13-6.29-4.33-13.5-6.61-21.61c-2.29-8.11-4.69-17.43-7.2-27.99c2.2-2.2,5.16-4.13,8.86-5.78c3.7-1.65,7.75-2.48,12.16-2.48
		c5.51,0,10.07,1.14,13.7,3.42c3.62,2.28,6.3,6.58,8.03,12.87l18.66,64.95h0.95c1.89-5.35,3.74-11.18,5.55-17.48
		c1.81-6.3,3.58-12.79,5.31-19.49c1.73-6.69,3.34-13.38,4.84-20.07c1.5-6.69,2.79-13.26,3.9-19.72c5.67-2.99,11.89-4.49,18.66-4.49
		c5.51,0,10.07,1.18,13.7,3.54c3.62,2.36,5.43,6.46,5.43,12.28c0,4.25-0.55,9.17-1.65,14.76c-1.1,5.59-2.56,11.54-4.37,17.83
		c-1.81,6.3-3.94,12.79-6.38,19.48c-2.44,6.7-5,13.27-7.68,19.72c-2.68,6.46-5.43,12.56-8.27,18.3c-2.83,5.75-5.59,10.91-8.27,15.47
		c-4.41,7.71-8.5,14.01-12.28,18.89c-3.78,4.88-7.4,8.7-10.86,11.45c-3.46,2.75-6.93,4.64-10.39,5.67
		c-3.46,1.02-7.08,1.54-10.86,1.54c-6.61,0-11.97-1.97-16.06-5.91c-4.1-3.94-6.53-9.05-7.32-15.35c5.04-3.94,10.07-8.3,15.11-13.11
		c5.04-4.8,9.6-9.72,13.7-14.76c-2.68-0.79-5.55-2.64-8.62-5.55C310.17,544.14,306.82,538.67,303.2,530.64z"/>
	<path class="st0" d="M514.34,416.81c1.1,1.73,2.08,4.06,2.95,6.97c0.87,2.91,1.3,5.94,1.3,9.09c0,6.14-1.3,10.51-3.89,13.11
		c-2.6,2.6-6.1,3.9-10.51,3.9h-49.6v26.69h51.72c1.26,1.73,2.32,4.01,3.19,6.85c0.86,2.84,1.3,5.83,1.3,8.97
		c0,5.99-1.3,10.27-3.9,12.87c-2.6,2.6-6.1,3.9-10.51,3.9h-41.33v49.83c-1.74,0.47-4.45,0.95-8.15,1.42
		c-3.7,0.47-7.36,0.71-10.98,0.71c-3.63,0-6.81-0.28-9.57-0.83c-2.76-0.55-5.08-1.54-6.97-2.95s-3.31-3.38-4.25-5.91
		c-0.95-2.52-1.42-5.82-1.42-9.92V438.78c0-6.77,1.97-12.12,5.91-16.06c3.93-3.93,9.29-5.9,16.06-5.9H514.34z"/>
	<path class="st0" d="M572.19,559.69c-1.73,0.31-4.29,0.75-7.68,1.3c-3.39,0.55-6.81,0.83-10.27,0.83c-3.46,0-6.58-0.23-9.33-0.71
		c-2.76-0.47-5.08-1.42-6.97-2.83c-1.89-1.42-3.35-3.34-4.37-5.79c-1.03-2.44-1.54-5.63-1.54-9.56V405.95
		c1.73-0.31,4.29-0.75,7.68-1.3c3.38-0.55,6.81-0.83,10.27-0.83c3.46,0,6.57,0.24,9.33,0.71c2.75,0.47,5.08,1.42,6.97,2.83
		c1.89,1.42,3.34,3.35,4.37,5.79c1.02,2.44,1.53,5.63,1.53,9.56V559.69z"/>
	<path class="st0" d="M591.79,413.27c0-5.98,2.01-11.02,6.02-15.11c4.01-4.09,9.33-6.14,15.94-6.14s11.93,2.05,15.94,6.14
		c4.01,4.1,6.02,9.13,6.02,15.11c0,5.99-2.01,11.02-6.02,15.11c-4.01,4.1-9.33,6.14-15.94,6.14s-11.93-2.05-15.94-6.14
		C593.8,424.29,591.79,419.26,591.79,413.27z M633.83,559.69c-1.74,0.31-4.29,0.75-7.68,1.3c-3.39,0.55-6.81,0.83-10.27,0.83
		c-3.46,0-6.58-0.23-9.33-0.71c-2.76-0.47-5.08-1.42-6.97-2.83c-1.89-1.42-3.34-3.34-4.37-5.79c-1.02-2.44-1.53-5.63-1.53-9.56
		V446.8c1.73-0.32,4.29-0.75,7.68-1.3c3.38-0.55,6.81-0.83,10.27-0.83c3.46,0,6.57,0.24,9.33,0.71c2.75,0.47,5.08,1.42,6.97,2.84
		c1.89,1.42,3.34,3.35,4.37,5.78c1.02,2.44,1.54,5.63,1.54,9.57V559.69z"/>
	<path class="st0" d="M710.58,441.61c8.97,0,17.12,1.14,24.44,3.42c7.32,2.29,13.5,5.24,18.54,8.86c3.15,2.21,5.63,4.65,7.44,7.32
		c1.81,2.68,2.72,6.14,2.72,10.39v82.66c0,8.34-1.58,15.55-4.72,21.61c-3.15,6.06-7.44,11.1-12.87,15.11
		c-5.43,4.01-11.81,6.97-19.13,8.85c-7.32,1.89-15.15,2.84-23.5,2.84c-14.33,0-25.59-1.93-33.77-5.78
		c-8.19-3.86-12.28-10.12-12.28-18.78c0-3.62,0.75-6.81,2.24-9.56c1.5-2.76,3.19-4.84,5.08-6.26c4.56,2.52,9.72,4.64,15.47,6.38
		c5.74,1.73,11.69,2.6,17.83,2.6c8.5,0,15.27-1.42,20.31-4.25c5.04-2.84,7.56-7.4,7.56-13.7v-3.78c-6.46,2.83-14.33,4.25-23.62,4.25
		c-7.08,0-13.82-1.06-20.19-3.19c-6.38-2.13-11.97-5.43-16.77-9.92c-4.8-4.49-8.66-10.27-11.57-17.36
		c-2.91-7.08-4.37-15.51-4.37-25.27c0-9.6,1.54-17.95,4.61-25.03c3.07-7.08,7.32-12.95,12.75-17.59
		c5.43-4.64,11.89-8.11,19.37-10.39C693.62,442.75,701.76,441.61,710.58,441.61z M725.22,475.85c-1.1-0.63-2.72-1.26-4.84-1.89
		c-2.12-0.63-4.76-0.95-7.91-0.95c-7.72,0-13.5,2.17-17.36,6.5c-3.86,4.33-5.78,10.51-5.78,18.54c0,9.13,1.93,15.7,5.78,19.72
		c3.86,4.01,8.78,6.02,14.76,6.02c6.46,0,11.57-1.49,15.35-4.49V475.85z"/>
	<path class="st0" d="M897.15,559.69c-1.58,0.47-4.06,0.95-7.44,1.42c-3.39,0.47-6.89,0.71-10.51,0.71c-3.46,0-6.58-0.23-9.33-0.71
		c-2.76-0.47-5.08-1.42-6.97-2.83c-1.89-1.42-3.35-3.34-4.37-5.79c-1.03-2.44-1.54-5.63-1.54-9.56V490.5
		c0-6.46-1.62-10.98-4.84-13.58c-3.23-2.6-7.2-3.9-11.93-3.9c-3.15,0-6.14,0.4-8.97,1.18c-2.83,0.79-5.12,1.73-6.85,2.83v82.66
		c-1.58,0.47-4.06,0.95-7.44,1.42c-3.39,0.47-6.89,0.71-10.51,0.71c-3.46,0-6.58-0.23-9.33-0.71c-2.76-0.47-5.08-1.42-6.97-2.83
		s-3.35-3.34-4.37-5.79c-1.03-2.44-1.54-5.63-1.54-9.56V405.95c1.73-0.31,4.29-0.75,7.68-1.3c3.39-0.55,6.81-0.83,10.27-0.83
		c3.46,0,6.57,0.24,9.33,0.71c2.75,0.47,5.08,1.42,6.97,2.83c1.89,1.42,3.34,3.35,4.37,5.79c1.02,2.44,1.54,5.63,1.54,9.56v23.15
		c2.04-0.79,5.15-1.69,9.33-2.72c4.17-1.02,8.77-1.54,13.81-1.54c15.59,0,27.75,3.9,36.49,11.69c8.74,7.79,13.11,19.41,13.11,34.84
		V559.69z"/>
	<path class="st0" d="M957.37,520.49c0,4.09,1.3,7.01,3.9,8.74c2.6,1.73,6.26,2.6,10.98,2.6c2.36,0,4.8-0.2,7.32-0.59
		c2.52-0.39,4.72-0.9,6.61-1.54c1.42,1.74,2.63,3.66,3.66,5.78c1.02,2.13,1.54,4.69,1.54,7.68c0,5.99-2.24,10.86-6.73,14.64
		c-4.49,3.78-12.4,5.67-23.73,5.67c-13.86,0-24.52-3.15-32-9.45c-7.48-6.29-11.22-16.53-11.22-30.7V422.24
		c1.73-0.47,4.21-0.98,7.44-1.54c3.22-0.55,6.65-0.83,10.27-0.83c6.93,0,12.32,1.22,16.18,3.66c3.86,2.44,5.78,7.6,5.78,15.47v15.12
		h30.94c0.95,1.73,1.85,3.89,2.72,6.49c0.86,2.6,1.3,5.47,1.3,8.62c0,5.51-1.22,9.49-3.66,11.93c-2.44,2.44-5.71,3.66-9.8,3.66
		h-21.49V520.49z"/>
	<path class="st0" d="M1051.36,558.98c-1.74,0.47-4.45,0.95-8.15,1.42c-3.7,0.47-7.36,0.71-10.98,0.71c-3.63,0-6.81-0.28-9.57-0.83
		c-2.76-0.55-5.08-1.54-6.97-2.95s-3.31-3.38-4.25-5.91c-0.95-2.52-1.42-5.82-1.42-9.92V430.27c0-3.31,0.9-5.86,2.72-7.68
		c1.81-1.81,4.29-3.27,7.44-4.37c5.35-1.89,11.46-3.27,18.3-4.13c6.85-0.87,13.74-1.3,20.66-1.3c21.73,0,38.33,4.64,49.83,13.93
		c11.49,9.29,17.24,21.89,17.24,37.79c0,7.72-1.22,14.68-3.66,20.9c-2.44,6.22-6.06,11.57-10.86,16.06
		c-4.81,4.49-10.86,7.95-18.19,10.39s-15.78,3.66-25.39,3.66h-16.77V558.98z M1063.64,483.17c6.61,0,11.69-1.54,15.23-4.61
		c3.54-3.07,5.31-7.75,5.31-14.05c0-5.98-1.85-10.59-5.55-13.82c-3.7-3.22-9.09-4.84-16.18-4.84c-2.52,0-4.61,0.04-6.26,0.12
		c-1.65,0.08-3.34,0.28-5.08,0.59v36.61H1063.64z"/>
	<path class="st0" d="M1184.32,441.61c8.5,0,16.25,0.87,23.26,2.6c7.01,1.74,12.99,4.37,17.95,7.91c4.96,3.54,8.78,8.03,11.45,13.46
		c2.68,5.43,4.01,11.85,4.01,19.25v52.9c0,4.1-1.14,7.44-3.42,10.04c-2.29,2.6-5,4.84-8.15,6.73c-10.24,6.14-24.64,9.21-43.22,9.21
		c-8.35,0-15.86-0.79-22.55-2.36s-12.44-3.93-17.24-7.08c-4.8-3.15-8.5-7.16-11.1-12.04c-2.6-4.88-3.9-10.55-3.9-17
		c0-10.86,3.22-19.21,9.68-25.03c6.45-5.82,16.45-9.45,29.99-10.86l30.94-3.31v-1.65c0-4.56-2.01-7.83-6.02-9.8
		c-4.01-1.97-9.8-2.95-17.36-2.95c-5.98,0-11.81,0.63-17.47,1.89c-5.67,1.26-10.79,2.83-15.35,4.72c-2.05-1.42-3.78-3.58-5.2-6.5
		c-1.42-2.91-2.12-5.94-2.12-9.09c0-4.09,0.98-7.36,2.95-9.8c1.97-2.44,4.99-4.52,9.09-6.26c4.56-1.73,9.96-2.99,16.18-3.78
		C1172.95,442,1178.81,441.61,1184.32,441.61z M1186.21,534.42c2.67,0,5.63-0.27,8.86-0.83c3.22-0.55,5.63-1.3,7.2-2.24v-18.89
		l-17,1.42c-4.41,0.32-8.03,1.26-10.86,2.83c-2.84,1.58-4.25,3.94-4.25,7.08c0,3.15,1.22,5.71,3.66,7.68
		C1176.25,533.44,1180.38,534.42,1186.21,534.42z"/>
	<path class="st0" d="M1348.22,525.68c0,11.97-4.49,21.33-13.46,28.1c-8.97,6.77-22.2,10.16-39.68,10.16
		c-6.61,0-12.75-0.47-18.42-1.42c-5.67-0.95-10.51-2.4-14.53-4.37c-4.01-1.97-7.17-4.44-9.45-7.44c-2.29-2.99-3.43-6.53-3.43-10.63
		c0-3.78,0.79-6.97,2.36-9.56c1.57-2.6,3.46-4.76,5.67-6.5c4.56,2.52,9.8,4.76,15.7,6.73c5.9,1.97,12.71,2.95,20.43,2.95
		c4.88,0,8.62-0.71,11.22-2.12c2.6-1.42,3.9-3.31,3.9-5.67c0-2.2-0.95-3.94-2.83-5.2c-1.89-1.26-5.04-2.28-9.45-3.07l-7.08-1.42
		c-13.7-2.68-23.89-6.89-30.58-12.64c-6.69-5.75-10.04-13.97-10.04-24.68c0-5.82,1.26-11.1,3.78-15.82
		c2.52-4.73,6.06-8.66,10.62-11.81c4.56-3.15,10.04-5.59,16.42-7.32c6.38-1.73,13.42-2.6,21.14-2.6c5.82,0,11.29,0.44,16.41,1.3
		c5.11,0.87,9.57,2.17,13.34,3.9c3.78,1.74,6.77,3.98,8.97,6.73c2.2,2.76,3.31,6.02,3.31,9.8c0,3.62-0.67,6.73-2.01,9.33
		c-1.34,2.6-3.03,4.76-5.08,6.5c-1.26-0.79-3.15-1.61-5.67-2.48c-2.52-0.87-5.28-1.65-8.27-2.36c-2.99-0.71-6.02-1.3-9.09-1.77
		c-3.07-0.47-5.87-0.71-8.38-0.71c-5.2,0-9.21,0.59-12.04,1.77c-2.84,1.18-4.25,3.03-4.25,5.55c0,1.74,0.78,3.15,2.36,4.25
		c1.57,1.1,4.56,2.12,8.97,3.07l7.32,1.65c15.11,3.46,25.86,8.23,32.23,14.29C1345.03,508.25,1348.22,516.08,1348.22,525.68z"/>
	<path class="st0" d="M1459.68,525.68c0,11.97-4.49,21.33-13.46,28.1c-8.97,6.77-22.2,10.16-39.68,10.16
		c-6.61,0-12.75-0.47-18.42-1.42c-5.67-0.95-10.51-2.4-14.53-4.37c-4.01-1.97-7.17-4.44-9.45-7.44c-2.29-2.99-3.43-6.53-3.43-10.63
		c0-3.78,0.79-6.97,2.36-9.56c1.57-2.6,3.46-4.76,5.67-6.5c4.56,2.52,9.8,4.76,15.7,6.73c5.9,1.97,12.71,2.95,20.43,2.95
		c4.88,0,8.62-0.71,11.22-2.12c2.6-1.42,3.9-3.31,3.9-5.67c0-2.2-0.95-3.94-2.83-5.2c-1.89-1.26-5.04-2.28-9.45-3.07l-7.08-1.42
		c-13.7-2.68-23.89-6.89-30.58-12.64c-6.69-5.75-10.04-13.97-10.04-24.68c0-5.82,1.26-11.1,3.78-15.82
		c2.52-4.73,6.06-8.66,10.62-11.81c4.56-3.15,10.04-5.59,16.42-7.32c6.38-1.73,13.42-2.6,21.14-2.6c5.82,0,11.29,0.44,16.41,1.3
		c5.11,0.87,9.57,2.17,13.34,3.9c3.78,1.74,6.77,3.98,8.97,6.73c2.2,2.76,3.31,6.02,3.31,9.8c0,3.62-0.67,6.73-2.01,9.33
		c-1.34,2.6-3.03,4.76-5.08,6.5c-1.26-0.79-3.15-1.61-5.67-2.48c-2.52-0.87-5.28-1.65-8.27-2.36c-2.99-0.71-6.02-1.3-9.09-1.77
		c-3.07-0.47-5.87-0.71-8.38-0.71c-5.2,0-9.21,0.59-12.04,1.77c-2.84,1.18-4.25,3.03-4.25,5.55c0,1.74,0.78,3.15,2.36,4.25
		c1.57,1.1,4.56,2.12,8.97,3.07l7.32,1.65c15.11,3.46,25.86,8.23,32.23,14.29C1456.49,508.25,1459.68,516.08,1459.68,525.68z"/>
</g>
<path class="st0" d="M1888.32,457.35c-7.6-11.56-17.82-20.36-29.5-27.26c-33.82-19.98-67.89-39.54-101.86-59.26
	c-32.15-18.67-64.27-37.39-96.49-55.95c-5.99-3.45-12.26-6.47-18.62-9.2c-43.87-18.79-89.48,5.61-106.3,43.28
	c-6.1,13.65-7.38,28.08-7.42,42.74c-0.05,16.65,0.04,29.25,0.05,44.24c-0.15,2.77,0.06,9.43,0.06,9.43
	c0,20.97,16.49,37.47,37.47,37.47c0,0,21.8-0.11,23.26-0.28c16.38,0.21,40.89,0.33,47.99,0.46c2.59,0.05,5.2,0.02,7.79-0.15
	c4.02-0.27,5.23-1.91,4.46-5.76c-0.19-0.92-0.42-1.84-0.64-2.75c-8.12-33.19-16.25-66.39-24.37-99.58c-1.45-5.94-1.18-6.6,3.69-8.84
	c2.6,0.09,5.19,0.18,7.79,0.26c5.3,1.8,8.67,5.72,11.7,10.21c21.45,31.79,42.98,63.53,64.49,95.27c8.16,12.04,6.45,12.3,23.71,13.29
	c20.62,1.18,41.27,2.1,61.85,3.79c11.17,0.92,20.91,5.1,24.95,17.03c-0.06,1.89-0.13,3.78-0.19,5.67
	c-4.75,11.47-14.59,15.13-25.67,15.33c-19.7,0.36-39.41-0.16-59.12-0.3c-3.89-0.03-7.79,0.09-11.68-0.01
	c-5.02-0.13-8.71,1.95-11.78,5.9c-25.5,32.78-51.11,65.47-76.61,98.25c-4.46,5.73-9.96,8.39-17.24,7.34
	c-5.01-0.72-6.38-2.59-4.86-7.42c10.49-33.14,21.01-66.27,31.52-99.4c0.25-0.79,0.48-1.58,0.7-2.37c1.05-3.82-0.03-5.58-3.86-6.25
	c-0.58-0.1-1.17-0.12-1.76-0.16c-11.43-0.61-55.23-1.95-66.67-1.7c-1.45,0.03-9.41,0.37-9.41,0.37c-18.5,0-34.32,12.11-37.73,29.66
	l-0.24,1.64c0,1.22,0,2.43-0.01,3.65c-0.06,2.46-0.09,7.29-0.02,8.24c-0.01,3.3-0.02,6.6-0.02,9.9c-0.02,18.77-0.57,37.61,0.77,56.3
	c3.15,44.17,41.38,77.5,85.33,75.61c13.83-0.6,26.28-5.07,38.2-11.17l0.14,0.24l145.09-83.38c0.05-0.03,0.1-0.05,0.15-0.08
	c15.82-9.09,23.42-13.45,37.93-21.81l31.68-18.21l-0.43-0.76c0.86-0.61,1.74-1.18,2.58-1.81
	C1904.03,542.97,1912.28,493.79,1888.32,457.35z"/>
</svg>
